<?xml version="1.0"?>
<svg xmlns="http://www.w3.org/2000/svg" xmlns:xlink="http://www.w3.org/1999/xlink" xmlns:svgjs="http://svgjs.com/svgjs" version="1.1" width="512" height="512" x="0" y="0" viewBox="0 0 512 512" style="enable-background:new 0 0 512 512" xml:space="preserve"><g><g xmlns="http://www.w3.org/2000/svg"><path d="m466 31c-12.684 0-22.66 4.983-30 11.358-7.34-6.375-17.316-11.358-30-11.358-7.535 0-14.575 1.887-20.754 5.232-39.977-23.731-84.449-36.232-129.246-36.232-140.756 0-256 115.264-256 256 0 8.284 6.716 15 15 15s15-6.716 15-15c0-124.617 101.383-226 226-226 37.523 0 74.874 10.031 108.882 29.117-2.493 5.998-3.882 12.673-3.882 19.762 0 27.793 20.848 45.558 49.702 70.146 4.928 4.2 10.024 8.542 15.42 13.264 2.828 2.474 6.353 3.711 9.878 3.711s7.05-1.237 9.877-3.711c6.045-5.289 11.738-10.099 17.244-14.75 28.377-23.974 48.879-41.295 48.879-68.66 0-26.007-19.809-47.879-46-47.879zm-22.239 93.622c-2.536 2.142-5.11 4.318-7.749 6.564-1.983-1.698-3.931-3.357-5.853-4.994-25.731-21.929-39.159-33.991-39.159-47.313 0-8.885 5.152-17.879 15-17.879 10.468 0 15.625 10.621 16.157 11.782 2.242 5.759 7.657 9.556 13.843 9.556s11.601-3.797 13.843-9.556c.532-1.161 5.689-11.782 16.157-11.782 8.972 0 16 7.853 16 17.879 0 12.839-13.112 24.514-38.239 45.743z" fill="#0088cc" data-original="#000000" style=""/><path d="m497 241c-8.284 0-15 6.716-15 15 0 124.617-101.383 226-226 226-45.337 0-90.359-14.604-128.51-41.396 14.444-14.436 23.51-28.401 23.51-46.725 0-26.848-19.767-47.879-45-47.879-12.684 0-22.66 4.983-30 11.358-7.34-6.375-17.316-11.358-30-11.358-26.187 0-46 21.865-46 47.879 0 27.365 20.502 44.687 48.879 68.66 5.505 4.651 11.198 9.461 17.243 14.75 2.828 2.474 6.353 3.711 9.878 3.711s7.05-1.237 9.877-3.711c6.625-5.797 12.639-10.886 18.806-16.151 44.323 32.876 97.579 50.862 151.317 50.862 140.756 0 256-115.264 256-256 0-8.284-6.716-15-15-15zm-415.161 200.192c-1.922 1.638-3.868 3.296-5.852 4.993-2.638-2.245-5.212-4.421-7.748-6.563-25.127-21.228-38.239-32.904-38.239-45.743 0-10.025 7.028-17.879 16-17.879 10.468 0 15.625 10.621 16.157 11.783 2.242 5.759 7.657 9.556 13.843 9.556s11.601-3.797 13.843-9.556c.532-1.162 5.689-11.783 16.157-11.783 9.848 0 15 8.994 15 17.879 0 13.322-13.428 25.385-39.161 47.313z" fill="#0088cc" data-original="#000000" style=""/><path d="m256 391c74.426 0 135-60.567 135-135 0-75.047-61.152-135-135-135-80.075 0-135 65.711-135 135 0 74.439 60.561 135 135 135zm101.308-107.385c-3.627-7.427-9.559-12.511-16.158-16.551l.457-.457c5.858-5.858 5.858-15.355 0-21.213-9.293-9.293-23.636-18.494-37.763-25.038 10.289-4.075 25.464-7.72 47.402-8.519 6.254 13.432 9.754 28.395 9.754 44.163 0 9.554-1.29 18.812-3.692 27.615zm-148.796-121.246 8.944 5.963-15.333 15.333c-14.196 7.043-24.27 11.403-30.313 21.366-2.798 4.613-4.252 9.578-5.005 15.478-1.822-1.686-4.047-3.902-6.908-6.781 9.802-22.201 27.073-40.389 48.615-51.359zm-57.099 84.374c4.74 3.711 9.437 6.264 15.296 7.734 3.256 28.742 17.757 42.687 43.432 67.369 5.958 5.727 12.709 12.218 20.253 19.761 4.243 4.244 10.674 5.591 16.325 3.26 5.601-2.31 9.263-7.762 9.281-13.821.05-16.331 3.764-42.597 10.606-49.439 6.678-6.678 5.599-17.831-2.286-23.087-8.534-5.69-15.337-10.349-20.803-14.093-24.093-16.501-28.123-18.855-47.101-18.649.216-2.426.543-4.363 1.044-5.19 1.246-2.054 12.023-7.059 20.248-11.171 1.442-.721 2.759-1.67 3.898-2.81l30-30c3.178-3.178 4.763-7.613 4.321-12.085-.443-4.472-2.868-8.51-6.607-11.003l-3.091-2.061c3.218-.298 6.476-.458 9.771-.458 29.681 0 56.523 12.383 75.638 32.25-57.263 6.695-72.286 32.583-73.993 35.921-2.378 4.65-2.166 10.202.56 14.658s7.572 7.171 12.795 7.171c6.572 0 23.878 7.161 37.564 16.223l-3.17 3.17c-3.41 3.409-4.972 8.25-4.2 13.01.772 4.759 3.785 8.857 8.098 11.014 18.455 9.227 21.708 9.71 21.708 16.583v28.404c-19.073 19.483-45.646 31.596-75 31.596-57.897 0-105-47.103-105-105 0-3.12.145-6.205.413-9.257zm45.757 9.015c5.602-.088 7.471.059 9.364.781 3.568 1.362 9.765 5.606 20.03 12.637 2.702 1.851 5.726 3.922 9.125 6.231-3.12 7.167-5.237 15.219-6.675 22.967-20.525-19.74-29.029-28.26-31.844-42.616z" fill="#0088cc" data-original="#000000" style=""/></g></g></svg>
